<svg width="739" height="769" viewBox="0 0 739 769" fill="none" xmlns="http://www.w3.org/2000/svg">
<g clip-path="url(#clip0_165_306)">
<rect width="739" height="769" fill="url(#paint0_radial_165_306)"/>
<path d="M121.937 402V268.06H177.685C204.654 268.06 220.944 282.178 220.944 305.165C220.944 319.464 214.428 329.962 202.301 335.211C215.514 339.555 222.573 349.872 222.573 365.076C222.573 388.787 206.645 402 177.685 402H121.937ZM174.608 293.762H151.259V322.903H174.608C185.106 322.903 190.898 317.654 190.898 308.061C190.898 298.649 185.287 293.762 174.608 293.762ZM176.056 347.519H151.259V376.298H176.056C186.916 376.298 192.527 371.411 192.527 361.456C192.527 352.406 186.735 347.519 176.056 347.519ZM301.134 311.5V337.745H292.265C276.337 337.745 266.744 344.804 266.744 362.723V402H238.87V311.681H265.115L266.563 325.075C270.364 316.206 278.328 310.233 290.455 310.233C293.713 310.233 297.333 310.595 301.134 311.5ZM339.025 404.353C319.839 404.353 307.893 393.131 307.893 375.393C307.893 358.741 319.658 348.424 341.378 346.795L366.718 344.804V343.356C366.718 334.487 361.288 329.781 351.333 329.781C339.568 329.781 333.233 334.306 333.233 342.451H310.065C310.065 321.998 326.898 308.604 352.781 308.604C379.026 308.604 393.868 323.265 393.868 349.148V402H369.252L367.442 390.054C364.546 398.38 352.6 404.353 339.025 404.353ZM348.799 383.719C359.478 383.719 366.899 378.47 366.899 368.153V363.266L352.781 364.533C340.654 365.619 336.31 368.334 336.31 374.126C336.31 380.642 340.292 383.719 348.799 383.719ZM441.734 402H413.86V311.5H440.105L441.915 320.912C447.526 313.129 457.843 308.604 469.608 308.604C491.147 308.604 503.636 322.36 503.636 346.071V402H475.762V352.768C475.762 341.365 469.427 333.944 459.834 333.944C448.793 333.944 441.734 341.184 441.734 352.406V402ZM561.637 404.353C535.573 404.353 518.74 385.891 518.74 357.293C518.74 328.514 535.935 308.604 563.447 308.604C574.669 308.604 585.348 313.129 590.597 319.826V265.526H618.471V402H592.226L590.778 390.416C585.891 398.742 574.669 404.353 561.637 404.353ZM568.334 378.832C581.366 378.832 590.416 369.782 590.416 356.207C590.416 342.632 581.366 333.582 568.334 333.582C555.121 333.582 546.795 342.813 546.795 356.207C546.795 369.601 555.121 378.832 568.334 378.832Z" fill="white"/>
<path d="M115.06 165.73V157.78H145.906V165.73H134.776V197H126.19V165.73H115.06ZM158.206 197H150.044V157.038H158.259V173.256C159.902 170.977 162.923 169.652 166.368 169.652C172.675 169.652 176.332 173.68 176.332 180.623V197H168.17V182.584C168.17 179.245 166.315 177.072 163.506 177.072C160.273 177.072 158.206 179.192 158.206 182.478V197ZM194.481 197.689C186.478 197.689 180.754 191.859 180.754 183.697C180.754 175.429 186.319 169.652 194.322 169.652C202.643 169.652 207.837 175.111 207.837 183.75V185.817L188.598 185.923C189.075 189.421 191.036 191.064 194.64 191.064C197.714 191.064 199.887 189.951 200.47 188.043H207.943C206.989 193.926 201.742 197.689 194.481 197.689ZM194.375 176.277C191.142 176.277 189.34 177.708 188.704 180.888H199.728C199.728 178.079 197.661 176.277 194.375 176.277ZM243.604 183.962H236.29V197H227.704V157.78H243.604C251.607 157.78 256.96 163.027 256.96 170.871C256.96 178.715 251.607 183.962 243.604 183.962ZM241.696 165.412H236.29V176.33H241.696C245.83 176.33 247.897 174.528 247.897 170.871C247.897 167.214 245.83 165.412 241.696 165.412ZM279.607 170.5V178.185H277.01C272.346 178.185 269.537 180.252 269.537 185.499V197H261.375V170.553H269.06L269.484 174.475C270.597 171.878 272.929 170.129 276.48 170.129C277.434 170.129 278.494 170.235 279.607 170.5ZM281.527 183.697C281.527 175.323 287.675 169.705 296.155 169.705C304.582 169.705 310.73 175.323 310.73 183.697C310.73 192.071 304.582 197.636 296.155 197.636C287.675 197.636 281.527 192.071 281.527 183.697ZM289.742 183.644C289.742 187.672 292.339 190.322 296.155 190.322C299.918 190.322 302.515 187.672 302.515 183.644C302.515 179.669 299.918 177.019 296.155 177.019C292.339 177.019 289.742 179.669 289.742 183.644ZM323.147 197H315.462V157.038H323.624V173.574C325.214 171.189 328.712 169.599 332.528 169.599C339.948 169.599 344.665 175.376 344.665 184.015C344.665 192.23 339.418 197.689 331.892 197.689C328.182 197.689 325.002 196.046 323.571 193.608L323.147 197ZM323.677 183.591C323.677 187.566 326.327 190.216 330.143 190.216C334.012 190.216 336.45 187.513 336.45 183.591C336.45 179.669 334.012 176.966 330.143 176.966C326.327 176.966 323.677 179.616 323.677 183.591ZM357.525 197H349.363V157.038H357.525V197ZM375.944 197.689C367.941 197.689 362.217 191.859 362.217 183.697C362.217 175.429 367.782 169.652 375.785 169.652C384.106 169.652 389.3 175.111 389.3 183.75V185.817L370.061 185.923C370.538 189.421 372.499 191.064 376.103 191.064C379.177 191.064 381.35 189.951 381.933 188.043H389.406C388.452 193.926 383.205 197.689 375.944 197.689ZM375.838 176.277C372.605 176.277 370.803 177.708 370.167 180.888H381.191C381.191 178.079 379.124 176.277 375.838 176.277ZM402.296 197H394.134V170.5H401.766L402.296 173.256C403.621 171.401 406.218 169.652 410.034 169.652C414.009 169.652 416.553 171.507 418.09 174.316C419.468 171.507 422.595 169.652 426.411 169.652C433.248 169.652 436.64 173.627 436.64 179.669V197H428.478V181.948C428.478 178.609 426.729 177.019 424.132 177.019C421.8 177.019 419.468 178.291 419.468 182.796V197H411.306V181.948C411.306 178.662 409.61 177.072 407.013 177.072C404.681 177.072 402.296 178.344 402.296 182.796V197ZM142.991 253H118.081V213.78H142.991V221.73H126.667V229.415H141.136V236.941H126.667V245.05H142.991V253ZM154.93 253L144.595 226.5H153.393L156.626 235.775C157.951 239.644 159.011 242.983 159.223 244.202C159.541 242.665 160.707 239.22 162.032 235.775L165.583 226.5H174.063L162.986 253H154.93ZM188.374 253.689C180.371 253.689 174.647 247.859 174.647 239.697C174.647 231.429 180.212 225.652 188.215 225.652C196.536 225.652 201.73 231.111 201.73 239.75V241.817L182.491 241.923C182.968 245.421 184.929 247.064 188.533 247.064C191.607 247.064 193.78 245.951 194.363 244.043H201.836C200.882 249.926 195.635 253.689 188.374 253.689ZM188.268 232.277C185.035 232.277 183.233 233.708 182.597 236.888H193.621C193.621 234.079 191.554 232.277 188.268 232.277ZM224.795 226.5V234.185H222.198C217.534 234.185 214.725 236.252 214.725 241.499V253H206.563V226.553H214.248L214.672 230.475C215.785 227.878 218.117 226.129 221.668 226.129C222.622 226.129 223.682 226.235 224.795 226.5ZM227.579 265.72V258.883H232.084C234.84 258.883 236.006 258.035 237.066 255.173L237.543 253.901L226.89 226.5H235.635L241.412 243.513L247.825 226.5H256.305L242.843 258.777C240.617 264.183 237.649 266.462 232.985 266.462C231.024 266.462 229.169 266.197 227.579 265.72Z" fill="url(#paint1_linear_165_306)"/>
<path d="M326.85 429.18V430.296H326.166C324.564 430.296 323.538 431.376 323.538 433.032V438H322.296V429.288H323.466L323.556 430.638C323.898 429.702 324.816 429.09 326.04 429.09C326.31 429.09 326.544 429.108 326.85 429.18ZM334.621 429.288H335.863V438H334.783L334.621 436.524C334.135 437.532 332.929 438.216 331.561 438.216C329.509 438.216 328.393 436.812 328.393 434.688V429.27H329.653V434.292C329.653 436.362 330.571 437.1 331.957 437.1C333.631 437.1 334.621 435.984 334.621 433.914V429.288ZM339.692 438H338.45V429.288H339.53L339.71 430.8C340.286 429.684 341.438 429.054 342.698 429.054C345.092 429.054 346.082 430.476 346.082 432.672V438H344.84V432.942C344.84 430.908 343.922 430.188 342.482 430.188C340.7 430.188 339.692 431.484 339.692 433.446V438ZM347.714 435.552H348.902C348.902 436.56 349.658 437.19 350.882 437.19C352.232 437.19 353.024 436.614 353.024 435.678C353.024 434.958 352.664 434.544 351.638 434.292L350.144 433.914C348.632 433.536 347.894 432.744 347.894 431.556C347.894 430.026 349.172 429.054 351.044 429.054C352.88 429.054 354.068 430.062 354.122 431.682H352.916C352.88 430.674 352.178 430.08 351.008 430.08C349.784 430.08 349.1 430.602 349.1 431.538C349.1 432.204 349.568 432.672 350.522 432.906L352.016 433.284C353.528 433.662 354.212 434.364 354.212 435.624C354.212 437.19 352.88 438.216 350.9 438.216C348.938 438.216 347.714 437.172 347.714 435.552ZM361.861 426.894C361.357 426.894 360.943 426.48 360.943 425.976C360.943 425.472 361.357 425.04 361.861 425.04C362.365 425.04 362.797 425.472 362.797 425.976C362.797 426.48 362.365 426.894 361.861 426.894ZM361.249 438V429.288H362.491V438H361.249ZM366.323 438H365.081V429.288H366.161L366.341 430.8C366.917 429.684 368.069 429.054 369.329 429.054C371.723 429.054 372.713 430.476 372.713 432.672V438H371.471V432.942C371.471 430.908 370.553 430.188 369.113 430.188C367.331 430.188 366.323 431.484 366.323 433.446V438ZM377.187 438H375.963V430.332H374.217V429.288H375.963V426.534H377.187V429.288H378.933V430.332H377.187V438ZM379.85 433.644C379.85 430.98 381.722 429.054 384.278 429.054C386.834 429.054 388.706 430.98 388.706 433.644C388.706 436.29 386.834 438.216 384.278 438.216C381.722 438.216 379.85 436.29 379.85 433.644ZM381.11 433.626C381.11 435.678 382.406 437.1 384.278 437.1C386.132 437.1 387.446 435.678 387.446 433.626C387.446 431.61 386.132 430.17 384.278 430.17C382.406 430.17 381.11 431.61 381.11 433.626ZM391.21 438.198C390.598 438.198 390.076 437.694 390.076 437.1C390.076 436.488 390.598 435.966 391.21 435.966C391.822 435.966 392.344 436.488 392.344 437.1C392.344 437.694 391.822 438.198 391.21 438.198ZM400.121 438H398.807L403.541 425.112H405.143L409.931 438H408.581L407.321 434.58H401.381L400.121 438ZM404.171 426.93L401.777 433.446H406.907L404.495 426.93C404.441 426.75 404.351 426.534 404.333 426.408C404.315 426.516 404.243 426.75 404.171 426.93ZM412.694 438H411.452V429.288H412.532L412.712 430.8C413.288 429.684 414.44 429.054 415.7 429.054C418.094 429.054 419.084 430.476 419.084 432.672V438H417.842V432.942C417.842 430.908 416.924 430.188 415.484 430.188C413.702 430.188 412.694 431.484 412.694 433.446V438ZM424.98 438.216C422.442 438.216 420.948 436.272 420.948 433.662C420.948 431.034 422.442 429.054 425.034 429.054C426.474 429.054 427.626 429.684 428.238 430.944V424.878H429.48V438H428.4L428.274 436.218C427.662 437.568 426.438 438.216 424.98 438.216ZM425.196 437.082C427.104 437.082 428.22 435.642 428.22 433.626C428.22 431.628 427.104 430.17 425.196 430.17C423.306 430.17 422.208 431.628 422.208 433.626C422.208 435.642 423.306 437.082 425.196 437.082ZM438.9 438L436.02 429.288H437.298L439.008 434.544C439.206 435.12 439.368 435.714 439.548 436.416C439.692 435.714 439.98 434.832 440.07 434.544L441.798 429.288H443.076L444.786 434.544C444.948 435.012 445.164 435.768 445.326 436.416C445.506 435.696 445.542 435.48 445.848 434.544L447.576 429.288H448.872L445.92 438H444.714L442.914 432.528C442.698 431.88 442.554 431.34 442.446 430.818C442.32 431.286 442.176 431.808 441.942 432.528L440.142 438H438.9ZM451.665 437.982H450.423V424.878H451.665V430.8C452.223 429.756 453.285 429.054 454.743 429.054C457.029 429.054 458.055 430.476 458.055 432.672V438H456.813V432.942C456.813 430.908 455.859 430.188 454.509 430.188C452.637 430.188 451.665 431.574 451.665 433.248V437.982ZM463.032 438.216C461.178 438.216 460.08 437.172 460.08 435.642C460.08 434.04 461.304 433.032 463.338 432.87L466.218 432.636V432.348C466.218 430.638 465.192 430.098 463.914 430.098C462.402 430.098 461.502 430.782 461.502 431.952H460.368C460.368 430.188 461.808 429.054 463.95 429.054C465.966 429.054 467.442 430.062 467.442 432.366V438H466.398L466.236 436.47C465.696 437.568 464.508 438.216 463.032 438.216ZM463.32 437.208C465.156 437.208 466.218 435.93 466.218 434.04V433.572L463.644 433.77C462.006 433.914 461.34 434.634 461.34 435.606C461.34 436.668 462.132 437.208 463.32 437.208ZM471.774 438H470.55V430.332H468.804V429.288H470.55V426.534H471.774V429.288H473.52V430.332H471.774V438ZM482.632 438.216C480.778 438.216 479.68 437.172 479.68 435.642C479.68 434.04 480.904 433.032 482.938 432.87L485.818 432.636V432.348C485.818 430.638 484.792 430.098 483.514 430.098C482.002 430.098 481.102 430.782 481.102 431.952H479.968C479.968 430.188 481.408 429.054 483.55 429.054C485.566 429.054 487.042 430.062 487.042 432.366V438H485.998L485.836 436.47C485.296 437.568 484.108 438.216 482.632 438.216ZM482.92 437.208C484.756 437.208 485.818 435.93 485.818 434.04V433.572L483.244 433.77C481.606 433.914 480.94 434.634 480.94 435.606C480.94 436.668 481.732 437.208 482.92 437.208ZM488.922 433.662C488.922 430.926 490.596 429.054 493.134 429.054C495.15 429.054 496.626 430.224 496.968 432.024H495.726C495.402 430.818 494.358 430.152 493.152 430.152C491.388 430.152 490.146 431.502 490.146 433.644C490.146 435.714 491.298 437.1 493.062 437.1C494.358 437.1 495.402 436.38 495.744 435.264H497.004C496.59 437.046 495.042 438.216 493.062 438.216C490.596 438.216 488.922 436.398 488.922 433.662ZM500.884 438H499.66V430.332H497.914V429.288H499.66V426.534H500.884V429.288H502.63V430.332H500.884V438ZM510.367 429.288H511.609V438H510.529L510.367 436.524C509.881 437.532 508.675 438.216 507.307 438.216C505.255 438.216 504.139 436.812 504.139 434.688V429.27H505.399V434.292C505.399 436.362 506.317 437.1 507.703 437.1C509.377 437.1 510.367 435.984 510.367 433.914V429.288ZM516.698 438.216C514.844 438.216 513.746 437.172 513.746 435.642C513.746 434.04 514.97 433.032 517.004 432.87L519.884 432.636V432.348C519.884 430.638 518.858 430.098 517.58 430.098C516.068 430.098 515.168 430.782 515.168 431.952H514.034C514.034 430.188 515.474 429.054 517.616 429.054C519.632 429.054 521.108 430.062 521.108 432.366V438H520.064L519.902 436.47C519.362 437.568 518.174 438.216 516.698 438.216ZM516.986 437.208C518.822 437.208 519.884 435.93 519.884 434.04V433.572L517.31 433.77C515.672 433.914 515.006 434.634 515.006 435.606C515.006 436.668 515.798 437.208 516.986 437.208ZM524.897 438H523.655V424.878H524.897V438ZM528.834 438H527.592V424.878H528.834V438ZM530.594 441.798V440.772H531.548C532.304 440.772 533.06 440.718 533.492 439.548L533.87 438.522L530.342 429.288H531.656L534.464 436.884L537.218 429.288H538.496L534.5 439.998C533.996 441.366 533.15 441.924 531.908 441.924C531.386 441.924 530.99 441.888 530.594 441.798ZM550.683 438V430.332H546.543V438H545.301V430.332H543.969V429.288H545.301V427.596C545.301 425.634 546.363 424.878 547.659 424.878C547.965 424.878 548.343 424.896 548.631 424.95V426.03H547.875C546.831 426.03 546.543 426.57 546.543 427.596V429.288H551.925V438H550.683ZM551.295 426.804C550.791 426.804 550.431 426.444 550.431 425.94C550.431 425.436 550.791 425.058 551.295 425.058C551.781 425.058 552.159 425.436 552.159 425.94C552.159 426.444 551.781 426.804 551.295 426.804ZM554.81 438H553.352L556.466 433.644L553.37 429.288H554.828L557.294 432.78L559.742 429.288H561.182L558.086 433.662L561.164 438H559.688L557.24 434.508L554.81 438ZM566.014 438.216C563.458 438.216 561.748 436.38 561.748 433.644C561.748 430.926 563.44 429.054 565.924 429.054C568.282 429.054 569.884 430.728 569.884 433.194V433.806H562.954C563.044 435.93 564.16 437.154 566.032 437.154C567.454 437.154 568.372 436.542 568.696 435.39H569.884C569.416 437.226 568.066 438.216 566.014 438.216ZM565.924 430.116C564.286 430.116 563.206 431.196 562.99 432.906H568.642C568.642 431.232 567.562 430.116 565.924 430.116ZM571.132 435.552H572.32C572.32 436.56 573.076 437.19 574.3 437.19C575.65 437.19 576.442 436.614 576.442 435.678C576.442 434.958 576.082 434.544 575.056 434.292L573.562 433.914C572.05 433.536 571.312 432.744 571.312 431.556C571.312 430.026 572.59 429.054 574.462 429.054C576.298 429.054 577.486 430.062 577.54 431.682H576.334C576.298 430.674 575.596 430.08 574.426 430.08C573.202 430.08 572.518 430.602 572.518 431.538C572.518 432.204 572.986 432.672 573.94 432.906L575.434 433.284C576.946 433.662 577.63 434.364 577.63 435.624C577.63 437.19 576.298 438.216 574.318 438.216C572.356 438.216 571.132 437.172 571.132 435.552ZM586.665 438H585.441V430.332H583.695V429.288H585.441V426.534H586.665V429.288H588.411V430.332H586.665V438ZM591.27 437.982H590.028V424.878H591.27V430.8C591.828 429.756 592.89 429.054 594.348 429.054C596.634 429.054 597.66 430.476 597.66 432.672V438H596.418V432.942C596.418 430.908 595.464 430.188 594.114 430.188C592.242 430.188 591.27 431.574 591.27 433.248V437.982ZM603.79 438.216C601.234 438.216 599.524 436.38 599.524 433.644C599.524 430.926 601.216 429.054 603.7 429.054C606.058 429.054 607.66 430.728 607.66 433.194V433.806H600.73C600.82 435.93 601.936 437.154 603.808 437.154C605.23 437.154 606.148 436.542 606.472 435.39H607.66C607.192 437.226 605.842 438.216 603.79 438.216ZM603.7 430.116C602.062 430.116 600.982 431.196 600.766 432.906H606.418C606.418 431.232 605.338 430.116 603.7 430.116ZM610.888 438H609.646V429.288H610.726L610.87 430.53C611.302 429.612 612.274 429.054 613.498 429.054C614.866 429.054 615.892 429.774 616.306 430.908C616.702 429.774 617.764 429.054 619.168 429.054C621.058 429.054 622.3 430.278 622.3 432.294V438H621.094V432.546C621.094 431.052 620.266 430.17 618.934 430.17C617.476 430.17 616.612 431.268 616.612 432.618V438H615.388V432.528C615.388 431.052 614.542 430.188 613.228 430.188C611.77 430.188 610.888 431.268 610.888 432.6V438ZM625.86 438.198C625.248 438.198 624.726 437.694 624.726 437.1C624.726 436.488 625.248 435.966 625.86 435.966C626.472 435.966 626.994 436.488 626.994 437.1C626.994 437.694 626.472 438.198 625.86 438.198Z" fill="#F4F1E9"/>
<path d="M67.5 149V505" stroke="url(#paint2_linear_165_306)"/>
<path d="M670 149V505" stroke="url(#paint3_linear_165_306)"/>
<path d="M77 142L680 142" stroke="url(#paint4_linear_165_306)"/>
<path d="M77 502L670 502" stroke="url(#paint5_linear_165_306)"/>
<rect x="59" y="133" width="18" height="18" fill="#D3533D"/>
<rect x="59" y="493" width="18" height="18" fill="#D3533D"/>
<rect x="661" y="133" width="18" height="18" fill="#D3533D"/>
<rect x="661" y="493" width="18" height="18" fill="#D3533D"/>
<path d="M239 444.835V402H267V444.835H261V453.5H245V444.835H239Z" fill="#2C2C2C"/>
<rect x="245" y="454" width="16" height="326" fill="url(#paint6_linear_165_306)"/>
</g>
<defs>
<radialGradient id="paint0_radial_165_306" cx="0" cy="0" r="1" gradientUnits="userSpaceOnUse" gradientTransform="translate(369.5 384.5) rotate(90) scale(384.5 369.5)">
<stop stop-color="#282828"/>
<stop offset="1" stop-color="#010101" stop-opacity="0"/>
</radialGradient>
<linearGradient id="paint1_linear_165_306" x1="187.536" y1="157.556" x2="187.536" y2="309.222" gradientUnits="userSpaceOnUse">
<stop stop-color="#1C1C1C"/>
<stop offset="1" stop-color="#3D3D3D"/>
</linearGradient>
<linearGradient id="paint2_linear_165_306" x1="68" y1="149" x2="68" y2="505" gradientUnits="userSpaceOnUse">
<stop stop-color="#333333"/>
<stop offset="1" stop-color="#333333" stop-opacity="0"/>
</linearGradient>
<linearGradient id="paint3_linear_165_306" x1="670.5" y1="149" x2="670.5" y2="505" gradientUnits="userSpaceOnUse">
<stop stop-color="#333333" stop-opacity="0"/>
<stop offset="1" stop-color="#333333"/>
</linearGradient>
<linearGradient id="paint4_linear_165_306" x1="77" y1="141.5" x2="680" y2="141.5" gradientUnits="userSpaceOnUse">
<stop stop-color="#333333"/>
<stop offset="1" stop-color="#333333" stop-opacity="0"/>
</linearGradient>
<linearGradient id="paint5_linear_165_306" x1="77" y1="501.5" x2="670" y2="501.5" gradientUnits="userSpaceOnUse">
<stop stop-color="#333333" stop-opacity="0"/>
<stop offset="1" stop-color="#333333"/>
</linearGradient>
<linearGradient id="paint6_linear_165_306" x1="253" y1="454" x2="253" y2="780" gradientUnits="userSpaceOnUse">
<stop stop-color="#343434"/>
<stop offset="1" stop-color="#343434" stop-opacity="0"/>
</linearGradient>
<clipPath id="clip0_165_306">
<rect width="739" height="769" fill="white"/>
</clipPath>
</defs>
</svg>
